<mxfile host="app.diagrams.net" modified="2023-10-14T21:09:24.489Z" agent="Mozilla/5.0 (Windows NT 10.0; Win64; x64) AppleWebKit/537.36 (KHTML, like Gecko) Chrome/116.0.0.0 Safari/537.36 OPR/102.0.0.0" etag="63FqQeLvQUb-9zNCHcpC" version="22.0.4" type="github" pages="2">
  <diagram name="Страница — 1" id="YuONCVen2tWsnODO0JvM">
    <mxGraphModel dx="1757" dy="959" grid="1" gridSize="10" guides="1" tooltips="1" connect="1" arrows="1" fold="1" page="1" pageScale="1" pageWidth="827" pageHeight="1169" math="0" shadow="0">
      <root>
        <mxCell id="0" />
        <mxCell id="1" parent="0" />
        <mxCell id="5TM-6S5WcGfOdyFXDcnR-8" value="" style="edgeStyle=orthogonalEdgeStyle;rounded=0;orthogonalLoop=1;jettySize=auto;html=1;" parent="1" source="5TM-6S5WcGfOdyFXDcnR-1" target="5TM-6S5WcGfOdyFXDcnR-7" edge="1">
          <mxGeometry relative="1" as="geometry" />
        </mxCell>
        <mxCell id="5TM-6S5WcGfOdyFXDcnR-1" value="Start&amp;nbsp;" style="strokeWidth=2;html=1;shape=mxgraph.flowchart.terminator;whiteSpace=wrap;" parent="1" vertex="1">
          <mxGeometry x="350" y="110" width="100" height="60" as="geometry" />
        </mxCell>
        <mxCell id="5TM-6S5WcGfOdyFXDcnR-6" value="" style="edgeStyle=orthogonalEdgeStyle;rounded=0;orthogonalLoop=1;jettySize=auto;html=1;" parent="1" source="5TM-6S5WcGfOdyFXDcnR-3" target="5TM-6S5WcGfOdyFXDcnR-5" edge="1">
          <mxGeometry relative="1" as="geometry" />
        </mxCell>
        <mxCell id="5TM-6S5WcGfOdyFXDcnR-3" value="i=0;i&amp;lt;9;i++" style="shape=hexagon;perimeter=hexagonPerimeter2;whiteSpace=wrap;html=1;fixedSize=1;" parent="1" vertex="1">
          <mxGeometry x="340" y="270" width="120" height="80" as="geometry" />
        </mxCell>
        <mxCell id="5TM-6S5WcGfOdyFXDcnR-12" value="" style="edgeStyle=orthogonalEdgeStyle;rounded=0;orthogonalLoop=1;jettySize=auto;html=1;" parent="1" source="5TM-6S5WcGfOdyFXDcnR-5" target="5TM-6S5WcGfOdyFXDcnR-10" edge="1">
          <mxGeometry relative="1" as="geometry" />
        </mxCell>
        <mxCell id="5TM-6S5WcGfOdyFXDcnR-5" value="введення x" style="shape=parallelogram;perimeter=parallelogramPerimeter;whiteSpace=wrap;html=1;fixedSize=1;" parent="1" vertex="1">
          <mxGeometry x="340" y="370" width="120" height="60" as="geometry" />
        </mxCell>
        <mxCell id="5TM-6S5WcGfOdyFXDcnR-9" value="" style="edgeStyle=orthogonalEdgeStyle;rounded=0;orthogonalLoop=1;jettySize=auto;html=1;" parent="1" source="5TM-6S5WcGfOdyFXDcnR-7" target="5TM-6S5WcGfOdyFXDcnR-3" edge="1">
          <mxGeometry relative="1" as="geometry" />
        </mxCell>
        <mxCell id="5TM-6S5WcGfOdyFXDcnR-17" style="edgeStyle=orthogonalEdgeStyle;rounded=0;orthogonalLoop=1;jettySize=auto;html=1;" parent="1" source="5TM-6S5WcGfOdyFXDcnR-7" edge="1">
          <mxGeometry relative="1" as="geometry">
            <mxPoint x="450" y="630" as="targetPoint" />
            <Array as="points">
              <mxPoint x="631" y="220" />
            </Array>
          </mxGeometry>
        </mxCell>
        <mxCell id="5TM-6S5WcGfOdyFXDcnR-7" value="sum=0" style="rounded=0;whiteSpace=wrap;html=1;" parent="1" vertex="1">
          <mxGeometry x="340" y="190" width="120" height="60" as="geometry" />
        </mxCell>
        <mxCell id="5TM-6S5WcGfOdyFXDcnR-14" value="" style="edgeStyle=orthogonalEdgeStyle;rounded=0;orthogonalLoop=1;jettySize=auto;html=1;" parent="1" source="5TM-6S5WcGfOdyFXDcnR-10" target="5TM-6S5WcGfOdyFXDcnR-13" edge="1">
          <mxGeometry relative="1" as="geometry" />
        </mxCell>
        <mxCell id="5TM-6S5WcGfOdyFXDcnR-16" style="edgeStyle=orthogonalEdgeStyle;rounded=0;orthogonalLoop=1;jettySize=auto;html=1;entryX=0;entryY=0.5;entryDx=0;entryDy=0;" parent="1" source="5TM-6S5WcGfOdyFXDcnR-10" target="5TM-6S5WcGfOdyFXDcnR-3" edge="1">
          <mxGeometry relative="1" as="geometry">
            <mxPoint x="270" y="220" as="targetPoint" />
            <Array as="points">
              <mxPoint x="271" y="500" />
              <mxPoint x="271" y="310" />
            </Array>
          </mxGeometry>
        </mxCell>
        <mxCell id="5TM-6S5WcGfOdyFXDcnR-10" value="x&amp;lt;=5" style="rhombus;whiteSpace=wrap;html=1;" parent="1" vertex="1">
          <mxGeometry x="360" y="460" width="80" height="80" as="geometry" />
        </mxCell>
        <mxCell id="5TM-6S5WcGfOdyFXDcnR-23" style="edgeStyle=orthogonalEdgeStyle;rounded=0;orthogonalLoop=1;jettySize=auto;html=1;" parent="1" source="5TM-6S5WcGfOdyFXDcnR-13" edge="1">
          <mxGeometry relative="1" as="geometry">
            <mxPoint x="280" y="500" as="targetPoint" />
            <Array as="points">
              <mxPoint x="540" y="550" />
            </Array>
          </mxGeometry>
        </mxCell>
        <mxCell id="5TM-6S5WcGfOdyFXDcnR-13" value="sum=sum+x" style="whiteSpace=wrap;html=1;" parent="1" vertex="1">
          <mxGeometry x="480" y="470" width="120" height="60" as="geometry" />
        </mxCell>
        <mxCell id="5TM-6S5WcGfOdyFXDcnR-15" value="true" style="text;html=1;align=center;verticalAlign=middle;resizable=0;points=[];autosize=1;strokeColor=none;fillColor=none;" parent="1" vertex="1">
          <mxGeometry x="440" y="460" width="40" height="30" as="geometry" />
        </mxCell>
        <mxCell id="5TM-6S5WcGfOdyFXDcnR-20" value="" style="edgeStyle=orthogonalEdgeStyle;rounded=0;orthogonalLoop=1;jettySize=auto;html=1;" parent="1" source="5TM-6S5WcGfOdyFXDcnR-18" target="5TM-6S5WcGfOdyFXDcnR-19" edge="1">
          <mxGeometry relative="1" as="geometry" />
        </mxCell>
        <mxCell id="5TM-6S5WcGfOdyFXDcnR-18" value="виведення sum" style="shape=parallelogram;perimeter=parallelogramPerimeter;whiteSpace=wrap;html=1;fixedSize=1;" parent="1" vertex="1">
          <mxGeometry x="340" y="600" width="120" height="60" as="geometry" />
        </mxCell>
        <mxCell id="5TM-6S5WcGfOdyFXDcnR-19" value="End" style="strokeWidth=2;html=1;shape=mxgraph.flowchart.terminator;whiteSpace=wrap;" parent="1" vertex="1">
          <mxGeometry x="350" y="700" width="100" height="60" as="geometry" />
        </mxCell>
        <mxCell id="j7nH21EvE-I_Z1IS4o__-1" value="false" style="text;html=1;align=center;verticalAlign=middle;resizable=0;points=[];autosize=1;strokeColor=none;fillColor=none;" parent="1" vertex="1">
          <mxGeometry x="300" y="460" width="50" height="30" as="geometry" />
        </mxCell>
      </root>
    </mxGraphModel>
  </diagram>
  <diagram id="3l8jHLzvIxQMKyEwqaPd" name="Страница — 2">
    <mxGraphModel dx="1464" dy="799" grid="1" gridSize="10" guides="1" tooltips="1" connect="1" arrows="1" fold="1" page="1" pageScale="1" pageWidth="827" pageHeight="1169" math="0" shadow="0">
      <root>
        <mxCell id="0" />
        <mxCell id="1" parent="0" />
        <mxCell id="GkEwZcTtwrSHskLglBaS-3" value="" style="edgeStyle=orthogonalEdgeStyle;rounded=0;orthogonalLoop=1;jettySize=auto;html=1;" edge="1" parent="1" source="GkEwZcTtwrSHskLglBaS-1" target="GkEwZcTtwrSHskLglBaS-2">
          <mxGeometry relative="1" as="geometry" />
        </mxCell>
        <mxCell id="GkEwZcTtwrSHskLglBaS-1" value="Start&amp;nbsp;" style="strokeWidth=2;html=1;shape=mxgraph.flowchart.terminator;whiteSpace=wrap;" vertex="1" parent="1">
          <mxGeometry x="370" y="130" width="100" height="60" as="geometry" />
        </mxCell>
        <mxCell id="GkEwZcTtwrSHskLglBaS-5" value="" style="edgeStyle=orthogonalEdgeStyle;rounded=0;orthogonalLoop=1;jettySize=auto;html=1;" edge="1" parent="1" source="GkEwZcTtwrSHskLglBaS-2" target="GkEwZcTtwrSHskLglBaS-4">
          <mxGeometry relative="1" as="geometry" />
        </mxCell>
        <mxCell id="GkEwZcTtwrSHskLglBaS-2" value="char x;&lt;br&gt;long long n, i=1, result=0, m=1;" style="rounded=0;whiteSpace=wrap;html=1;" vertex="1" parent="1">
          <mxGeometry x="360" y="230" width="120" height="60" as="geometry" />
        </mxCell>
        <mxCell id="GkEwZcTtwrSHskLglBaS-8" value="" style="edgeStyle=orthogonalEdgeStyle;rounded=0;orthogonalLoop=1;jettySize=auto;html=1;" edge="1" parent="1" source="GkEwZcTtwrSHskLglBaS-4" target="GkEwZcTtwrSHskLglBaS-6">
          <mxGeometry relative="1" as="geometry" />
        </mxCell>
        <mxCell id="GkEwZcTtwrSHskLglBaS-4" value="введення n" style="shape=parallelogram;perimeter=parallelogramPerimeter;whiteSpace=wrap;html=1;fixedSize=1;" vertex="1" parent="1">
          <mxGeometry x="360" y="330" width="120" height="60" as="geometry" />
        </mxCell>
        <mxCell id="GkEwZcTtwrSHskLglBaS-9" value="" style="edgeStyle=orthogonalEdgeStyle;rounded=0;orthogonalLoop=1;jettySize=auto;html=1;" edge="1" parent="1" source="GkEwZcTtwrSHskLglBaS-6" target="GkEwZcTtwrSHskLglBaS-7">
          <mxGeometry relative="1" as="geometry" />
        </mxCell>
        <mxCell id="GkEwZcTtwrSHskLglBaS-11" style="edgeStyle=orthogonalEdgeStyle;rounded=0;orthogonalLoop=1;jettySize=auto;html=1;entryX=0.5;entryY=0;entryDx=0;entryDy=0;" edge="1" parent="1" source="GkEwZcTtwrSHskLglBaS-6" target="GkEwZcTtwrSHskLglBaS-12">
          <mxGeometry relative="1" as="geometry">
            <mxPoint x="420" y="660" as="targetPoint" />
            <Array as="points">
              <mxPoint x="520" y="460" />
              <mxPoint x="520" y="660" />
              <mxPoint x="420" y="660" />
            </Array>
          </mxGeometry>
        </mxCell>
        <mxCell id="GkEwZcTtwrSHskLglBaS-6" value="n/i&amp;gt;=10" style="rhombus;whiteSpace=wrap;html=1;" vertex="1" parent="1">
          <mxGeometry x="380" y="420" width="80" height="80" as="geometry" />
        </mxCell>
        <mxCell id="GkEwZcTtwrSHskLglBaS-10" style="edgeStyle=orthogonalEdgeStyle;rounded=0;orthogonalLoop=1;jettySize=auto;html=1;entryX=0;entryY=0.5;entryDx=0;entryDy=0;" edge="1" parent="1" source="GkEwZcTtwrSHskLglBaS-7" target="GkEwZcTtwrSHskLglBaS-6">
          <mxGeometry relative="1" as="geometry">
            <mxPoint x="340" y="460" as="targetPoint" />
            <Array as="points">
              <mxPoint x="340" y="560" />
              <mxPoint x="340" y="460" />
            </Array>
          </mxGeometry>
        </mxCell>
        <mxCell id="GkEwZcTtwrSHskLglBaS-7" value="i*=10;" style="rounded=0;whiteSpace=wrap;html=1;" vertex="1" parent="1">
          <mxGeometry x="360" y="530" width="120" height="60" as="geometry" />
        </mxCell>
        <mxCell id="GkEwZcTtwrSHskLglBaS-13" style="edgeStyle=orthogonalEdgeStyle;rounded=0;orthogonalLoop=1;jettySize=auto;html=1;" edge="1" parent="1" source="GkEwZcTtwrSHskLglBaS-12">
          <mxGeometry relative="1" as="geometry">
            <mxPoint x="420" y="790" as="targetPoint" />
          </mxGeometry>
        </mxCell>
        <mxCell id="GkEwZcTtwrSHskLglBaS-12" value="x=n/i;&lt;br&gt;result+=x*m;&lt;br&gt;m*=10;&lt;br&gt;n=n-x*i;&lt;br&gt;i/=10;" style="rounded=0;whiteSpace=wrap;html=1;" vertex="1" parent="1">
          <mxGeometry x="360" y="680" width="120" height="70" as="geometry" />
        </mxCell>
        <mxCell id="GkEwZcTtwrSHskLglBaS-15" style="edgeStyle=orthogonalEdgeStyle;rounded=0;orthogonalLoop=1;jettySize=auto;html=1;entryX=-0.03;entryY=0.571;entryDx=0;entryDy=0;entryPerimeter=0;" edge="1" parent="1" source="GkEwZcTtwrSHskLglBaS-14" target="GkEwZcTtwrSHskLglBaS-12">
          <mxGeometry relative="1" as="geometry">
            <mxPoint x="300" y="720" as="targetPoint" />
            <Array as="points">
              <mxPoint x="300" y="830" />
              <mxPoint x="300" y="720" />
            </Array>
          </mxGeometry>
        </mxCell>
        <mxCell id="GkEwZcTtwrSHskLglBaS-20" style="edgeStyle=orthogonalEdgeStyle;rounded=0;orthogonalLoop=1;jettySize=auto;html=1;" edge="1" parent="1" source="GkEwZcTtwrSHskLglBaS-14">
          <mxGeometry relative="1" as="geometry">
            <mxPoint x="540.0000000000002" y="830" as="targetPoint" />
          </mxGeometry>
        </mxCell>
        <mxCell id="GkEwZcTtwrSHskLglBaS-14" value="n&amp;gt;0" style="rhombus;whiteSpace=wrap;html=1;" vertex="1" parent="1">
          <mxGeometry x="380" y="790" width="80" height="80" as="geometry" />
        </mxCell>
        <mxCell id="GkEwZcTtwrSHskLglBaS-16" value="true" style="text;html=1;align=center;verticalAlign=middle;resizable=0;points=[];autosize=1;strokeColor=none;fillColor=none;" vertex="1" parent="1">
          <mxGeometry x="330" y="798" width="40" height="30" as="geometry" />
        </mxCell>
        <mxCell id="GkEwZcTtwrSHskLglBaS-17" value="true" style="text;html=1;align=center;verticalAlign=middle;resizable=0;points=[];autosize=1;strokeColor=none;fillColor=none;" vertex="1" parent="1">
          <mxGeometry x="374" y="500" width="40" height="30" as="geometry" />
        </mxCell>
        <mxCell id="GkEwZcTtwrSHskLglBaS-18" value="false" style="text;html=1;align=center;verticalAlign=middle;resizable=0;points=[];autosize=1;strokeColor=none;fillColor=none;" vertex="1" parent="1">
          <mxGeometry x="455" y="428" width="50" height="30" as="geometry" />
        </mxCell>
        <mxCell id="GkEwZcTtwrSHskLglBaS-19" value="false" style="text;html=1;align=center;verticalAlign=middle;resizable=0;points=[];autosize=1;strokeColor=none;fillColor=none;" vertex="1" parent="1">
          <mxGeometry x="470" y="790" width="50" height="30" as="geometry" />
        </mxCell>
        <mxCell id="GkEwZcTtwrSHskLglBaS-23" value="" style="edgeStyle=orthogonalEdgeStyle;rounded=0;orthogonalLoop=1;jettySize=auto;html=1;" edge="1" parent="1" source="GkEwZcTtwrSHskLglBaS-21" target="GkEwZcTtwrSHskLglBaS-22">
          <mxGeometry relative="1" as="geometry" />
        </mxCell>
        <mxCell id="GkEwZcTtwrSHskLglBaS-21" value="виведення result" style="shape=parallelogram;perimeter=parallelogramPerimeter;whiteSpace=wrap;html=1;fixedSize=1;" vertex="1" parent="1">
          <mxGeometry x="530" y="800" width="120" height="60" as="geometry" />
        </mxCell>
        <mxCell id="GkEwZcTtwrSHskLglBaS-22" value="End" style="strokeWidth=2;html=1;shape=mxgraph.flowchart.terminator;whiteSpace=wrap;" vertex="1" parent="1">
          <mxGeometry x="540" y="900" width="100" height="60" as="geometry" />
        </mxCell>
      </root>
    </mxGraphModel>
  </diagram>
</mxfile>
